<svg t="1675767526890" class="icon" viewBox="0 0 1024 1024" version="1.1" xmlns="http://www.w3.org/2000/svg" p-id="2728" data-darkreader-inline-fill="" width="200" height="200"><path d="M298.666667 208.853333V896H213.333333V128h256v80.853333z" opacity=".3" p-id="2729" data-darkreader-inline-fill=""></path><path d="M434.261333 95.872l341.333334 61.866667a42.666667 42.666667 0 0 1 35.072 41.984v624.554666a42.666667 42.666667 0 0 1-35.072 41.984l-341.333334 61.866667A42.666667 42.666667 0 0 1 384 886.144V137.813333a42.666667 42.666667 0 0 1 50.261333-41.984z m74.197334 454.784c29.44 0 53.333333-25.941333 53.333333-57.984 0-32-23.893333-57.984-53.333333-57.984s-53.333333 25.941333-53.333334 57.984c0 32 23.893333 57.984 53.333334 57.984z"></path></svg>